<?xml version="1.0" encoding="utf-8"?>
<!-- Generator: Adobe Illustrator 16.0.0, SVG Export Plug-In . SVG Version: 6.00 Build 0)  -->
<!DOCTYPE svg PUBLIC "-//W3C//DTD SVG 1.1//EN" "http://www.w3.org/Graphics/SVG/1.1/DTD/svg11.dtd">
<svg version="1.1" id="Layer_1" xmlns="http://www.w3.org/2000/svg" xmlns:xlink="http://www.w3.org/1999/xlink" x="0px" y="0px"
	 width="330px" height="132px" viewBox="0 0 330 132" enable-background="new 0 0 330 132" xml:space="preserve">
<g>
	<g>
		<polygon fill="#FFFFFF" points="16.712,49.478 54.589,49.478 54.589,58.734 71.475,41.845 54.589,24.96 54.589,34.695 
			16.712,34.695 16.712,16.185 54.664,16.185 54.664,1.283 16.712,1.283 1.23,1.283 1.23,16.185 1.23,34.695 1.23,49.478 
			1.23,67.988 1.23,82.775 16.712,82.775 54.648,82.775 54.648,67.988 16.712,67.988 		"/>
		<polygon fill="#FFFFFF" points="137.186,16.185 159.19,16.185 159.19,82.775 174.672,82.775 174.672,16.185 196.557,16.185 
			196.557,1.283 137.186,1.283 		"/>
		<path fill="#FFFFFF" d="M311.309,52.505c10.127-4.189,15.482-13.504,15.482-24.445c0-14.9-10.129-26.777-28.287-26.777H268.35
			v14.902h29.803c7.686,0,12.576,4.889,12.576,11.875c0,6.984-4.891,11.99-12.576,11.99H268.35v42.725h15.484v-27.94h11.291
			l16.184,27.94h17.461L311.309,52.505z"/>
		<polygon fill="#FFFFFF" points="203.904,1.283 203.873,1.283 203.873,82.775 203.904,82.775 219.355,82.775 257.322,82.775 
			257.322,67.988 219.355,67.988 219.355,49.478 248.996,49.478 248.996,34.695 219.355,34.695 219.355,16.185 257.338,16.185 
			257.338,1.283 219.355,1.283 		"/>
		<polygon fill="#FFFFFF" points="66.423,82.775 81.907,82.775 81.907,46.597 66.423,62.08 		"/>
		<polygon fill="#FFFFFF" points="114.387,47.035 67.471,0.585 66.423,0.585 66.423,21.615 128.823,83.705 129.871,83.705 
			129.871,1.283 114.387,1.283 		"/>
	</g>
	<g>
		<path fill="#2E2A25" d="M74.217,119.01h-3.977v12.129h-3.817v-27.832h3.817v12.045h3.34l8.27-12.045h4.851l-9.422,13.395
			l10.258,14.438h-4.812L74.217,119.01z"/>
		<path fill="#2E2A25" d="M119.897,117.26c0,7.834-5.645,14.154-13.519,14.154c-7.833,0-13.479-6.359-13.479-14.193
			c0-7.832,5.646-14.154,13.479-14.154C114.252,103.066,119.897,109.389,119.897,117.26z M116.002,117.26
			c0-5.766-3.859-10.416-9.624-10.416c-5.724,0-9.58,4.613-9.58,10.377s3.856,10.418,9.58,10.418
			C112.143,127.639,116.002,122.984,116.002,117.26z M108.803,117.26c0,1.312-1.073,2.385-2.425,2.385
			c-1.312,0-2.386-1.072-2.386-2.385c0-1.35,1.074-2.426,2.386-2.426C107.73,114.834,108.803,115.91,108.803,117.26z"/>
		<path fill="#2E2A25" d="M148.362,112.289c0,4.932-3.5,8.945-9.105,8.945h-6.641v9.904h-3.777v-13.68h10.418
			c3.34,0,5.169-2.467,5.169-5.17c0-2.742-1.79-5.209-5.169-5.209h-10.418v-3.773h10.418
			C144.941,103.307,148.362,107.32,148.362,112.289z"/>
		<path fill="#2E2A25" d="M167.482,121.234h-6.56v9.904h-3.817v-13.68h10.418c3.338,0,5.207-2.467,5.207-5.17
			c0-2.742-1.869-5.209-5.207-5.209h-10.418v-3.773h10.418c5.645,0,9.104,4.014,9.104,8.982c0,3.658-1.908,6.801-5.209,8.191
			l6.004,10.658h-4.334L167.482,121.234z"/>
		<path fill="#2E2A25" d="M189.744,103.307v4.492h-3.777v-4.492H189.744z M189.744,111.693v19.445h-3.777v-19.445H189.744z"/>
		<path fill="#2E2A25" d="M201.947,103.307l5.33,14.707l-1.99,5.447l-7.393-20.154H201.947z M222.064,103.307l-10.256,27.832h-3.695
			l-0.123-0.32l10.02-27.512H222.064z"/>
		<path fill="#2E2A25" d="M251.287,103.307v28.107h-0.359l-16.938-18.566v18.291h-3.777v-28.072h0.318l16.938,18.727v-18.486
			H251.287z"/>
		<path fill="#2E2A25" d="M265,103.307v4.492h-3.777v-4.492H265z M265,111.693v19.445h-3.777v-19.445H265z"/>
		<path fill="#2E2A25" d="M295.455,123.184l3.498,1.75c-2.348,3.895-6.48,6.48-11.49,6.48c-7.832,0-13.52-6.32-13.52-14.154
			c0-7.871,5.688-14.193,13.52-14.193c5.01,0,9.143,2.584,11.49,6.52l-3.498,1.713c-1.631-2.668-4.455-4.416-7.992-4.416
			c-5.766,0-9.623,4.611-9.623,10.377c0,5.725,3.857,10.379,9.623,10.379C291,127.639,293.824,125.887,295.455,123.184z
			 M287.541,114.875c1.354,0,2.426,1.115,2.426,2.426c0,1.312-1.072,2.383-2.426,2.383c-1.311,0-2.383-1.07-2.383-2.383
			C285.158,115.99,286.23,114.875,287.541,114.875z"/>
		<path fill="#2E2A25" d="M328.77,131.139h-4.176l-7.67-22.148l-7.678,22.148h-4.172l9.979-27.832h3.697L328.77,131.139z"/>
	</g>
</g>
</svg>
